<?xml version="1.0" standalone="no"?>
<!DOCTYPE svg PUBLIC "-//W3C//DTD SVG 20010904//EN"
 "http://www.w3.org/TR/2001/REC-SVG-20010904/DTD/svg10.dtd">
<svg version="1.0" xmlns="http://www.w3.org/2000/svg"
 width="1081.000000pt" height="1081.000000pt" viewBox="0 0 1081.000000 1081.000000"
 preserveAspectRatio="xMidYMid meet">
<metadata>
Created by potrace 1.14, written by Peter Selinger 2001-2017
</metadata>
<g transform="translate(0.000000,1081.000000) scale(0.100000,-0.100000)"
fill="#000000" stroke="none">
<path d="M4495 8574 c-244 -41 -459 -141 -624 -291 l-61 -55 0 156 0 156 -520
0 -520 0 0 -1436 0 -1436 23 5 c181 45 695 103 977 110 l85 2 5 705 c6 694 6
706 28 778 81 264 255 401 512 402 190 0 318 -79 395 -243 67 -144 68 -151 69
-947 l1 -715 140 -7 c207 -11 800 -48 878 -55 l67 -6 0 669 c0 805 5 867 86
1032 92 188 268 284 497 269 165 -11 282 -90 352 -240 68 -146 68 -137 72
-998 l4 -776 212 -6 c252 -7 646 7 825 29 l43 5 -4 907 c-3 803 -6 917 -21
992 -112 566 -402 874 -927 987 -130 28 -467 25 -606 -5 -277 -60 -505 -183
-682 -367 l-78 -81 -64 80 c-164 203 -411 336 -709 381 -117 18 -347 18 -455
-1z"/>
<path d="M3520 5319 c-190 -15 -607 -76 -728 -106 l-23 -5 4 -887 c3 -860 4
-889 25 -1000 105 -546 403 -865 913 -977 122 -27 487 -27 609 0 280 61 502
178 682 359 49 49 93 86 97 81 4 -5 31 -39 60 -75 156 -197 392 -325 690 -374
152 -26 427 -17 567 19 222 55 420 161 543 290 19 20 39 36 43 36 4 0 8 -70 8
-155 l0 -155 515 0 515 0 0 1427 0 1426 -97 -7 c-293 -19 -571 -27 -765 -21
l-217 7 -4 -718 c-3 -640 -6 -727 -21 -794 -41 -173 -118 -300 -229 -371 -92
-60 -150 -74 -297 -74 -106 1 -134 4 -182 24 -116 45 -201 152 -249 311 l-23
75 -4 793 c-2 609 -6 794 -15 797 -23 8 -926 65 -1029 65 l-48 0 0 -737 c0
-799 -4 -862 -54 -996 -82 -219 -251 -337 -481 -337 -141 1 -228 33 -311 115
-59 59 -94 121 -126 227 -22 73 -22 75 -26 911 l-3 837 -117 -1 c-64 -1 -164
-6 -222 -10z"/>
</g>
</svg>
