<?xml version="1.0" standalone="no"?>
<!DOCTYPE svg PUBLIC "-//W3C//DTD SVG 20010904//EN"
 "http://www.w3.org/TR/2001/REC-SVG-20010904/DTD/svg10.dtd">
<svg version="1.0" xmlns="http://www.w3.org/2000/svg"
 width="252.000000pt" height="252.000000pt" viewBox="0 0 252.000000 252.000000"
 preserveAspectRatio="xMidYMid meet">
<metadata>
Created by potrace 1.11, written by Peter Selinger 2001-2013
</metadata>
<g transform="translate(0.000000,252.000000) scale(0.100000,-0.100000)"
fill="#000000" stroke="none">
<path d="M1130 2515 c-8 -2 -49 -9 -90 -15 -304 -49 -609 -238 -791 -490 -71
-99 -72 -100 -124 -206 -136 -279 -160 -619 -64 -930 118 -380 441 -699 830
-818 246 -75 542 -70 783 13 360 125 664 433 780 792 32 97 32 95 51 214 10
62 14 134 11 230 -20 601 -454 1095 -1056 1200 -39 7 -306 15 -330 10z"/>
</g>
</svg>
