<svg xmlns="http://www.w3.org/2000/svg" viewBox="0 0 25 14.84"><defs><style>.cls-1{fill:#808e96;}</style></defs><title>Middel 4</title><g id="Laag_2" data-name="Laag 2"><g id="Layer_23" data-name="Layer 23"><path class="cls-1" d="M.31,3.12A.89.89,0,0,1,0,2.46,1.13,1.13,0,0,1,.23,1.8L1.8.23A1.15,1.15,0,0,1,2.5,0a.85.85,0,0,1,.62.23l9.38,9.3L21.88.23A.85.85,0,0,1,22.5,0a1.15,1.15,0,0,1,.7.23L24.77,1.8a1.13,1.13,0,0,1,.23.66,1.08,1.08,0,0,1-.23.66L13.2,14.61a1.18,1.18,0,0,1-1.4,0h.08Z"/></g></g></svg>