<?xml version="1.0" encoding="UTF-8"?>
<svg width="797px" height="203px" viewBox="0 0 797 203" version="1.1" xmlns="http://www.w3.org/2000/svg" xmlns:xlink="http://www.w3.org/1999/xlink">
    <title>Logo_Motivatiemeesters_DIAP_RGB</title>
    <defs>
        <polygon id="path-1" points="0 1.42108547e-14 796.314 1.42108547e-14 796.314 95.913 0 95.913"></polygon>
    </defs>
    <g id="Page-1" stroke="none" stroke-width="1" fill="none" fill-rule="evenodd">
        <g id="Logo_Motivatiemeesters_DIAP_RGB">
            <path d="M738.806,60.369 C742.929,57.358 747.473,55.854 752.435,55.854 C757.395,55.854 761.604,57.304 765.061,60.201 C768.516,63.102 770.521,67.226 771.081,72.577 L731.616,72.577 C732.285,67.45 734.68,63.38 738.806,60.369 Z M736.795,101.02 C733.566,98.144 731.607,94.631 730.947,90.47 L796.5,90.47 L796.5,77.092 C796.5,64.047 792.179,53.792 783.54,46.322 C774.899,38.854 764.392,35.117 752.017,35.117 C739.643,35.117 728.911,39.298 719.826,47.659 C710.738,56.02 706.197,67.283 706.197,81.439 C706.197,89.987 707.833,97.48 711.083,103.935 C719.602,103.059 728.197,102.091 736.795,101.02 L736.795,101.02 Z" id="Fill-1" fill="#FFFFFE"></path>
            <path d="M662.384,36.623 L662.384,108.101 C670.528,107.535 678.915,106.891 687.468,106.158 L687.468,36.623 L662.384,36.623" id="Fill-2" fill="#FFFFFE"></path>
            <path d="M674.926,29.431 C679.05,29.431 682.535,28.01 685.378,25.168 C688.221,22.325 689.642,18.842 689.642,14.716 C689.642,10.592 688.221,7.107 685.378,4.264 C682.535,1.421 679.05,0 674.926,0 C670.8,0 667.317,1.421 664.475,4.264 C661.632,7.107 660.211,10.592 660.211,14.716 C660.211,18.842 661.632,22.325 664.475,25.168 C667.317,28.01 670.8,29.431 674.926,29.431" id="Fill-3" fill="#FFFFFE"></path>
            <path d="M593.489,96.156 C593.489,101.983 594.566,107.064 596.669,111.435 C610.25,110.994 626.638,110.308 644.746,109.237 L639.643,99.668 C636.408,103.906 632.452,106.022 627.77,106.022 C625.316,106.022 623.197,105.047 621.415,103.096 C619.631,101.147 618.739,98.442 618.739,94.985 L618.739,54.684 L640.478,54.684 L640.478,36.623 L618.739,36.623 L618.739,9.698 L593.489,9.698 L593.489,36.623 L582.952,36.623 L582.952,54.684 L593.489,54.684 L593.489,96.156" id="Fill-4" fill="#FFFFFE"></path>
            <path d="M541.647,92.31 C541.647,96.883 539.946,100.532 536.547,103.263 C533.145,105.996 529.215,107.36 524.757,107.36 C520.297,107.36 516.869,106.497 514.473,104.768 C512.074,103.04 510.878,100.561 510.878,97.326 C510.878,91.084 515.894,87.961 525.928,87.961 L541.647,87.961 L541.647,92.31 Z M523.086,70.069 C511.488,70.069 502.349,72.354 495.66,76.924 C488.971,81.496 485.626,88.379 485.626,97.578 C485.626,101.909 486.369,105.817 487.803,109.332 C508.035,111.111 530.612,112.225 557.162,112.225 C557.162,112.225 560.645,112.224 566.898,112.138 L566.898,69.231 C566.898,57.416 563.443,48.776 556.531,43.312 C549.617,37.85 540.699,35.117 529.774,35.117 C514.611,35.117 501.121,39.411 489.305,47.994 L500.509,64.215 C503.853,61.653 507.951,59.506 512.8,57.776 C517.65,56.049 522.249,55.185 526.597,55.185 C536.74,55.185 541.814,59.98 541.814,69.566 L541.814,70.069 L523.086,70.069 L523.086,70.069 Z" id="Fill-5" fill="#FFFFFE"></path>
            <path d="M452.064,105.302 L479.27,36.455 L453.182,36.455 L430.774,93.146 L408.365,36.455 L382.277,36.455 L406.695,98.245 C421.515,100.697 436.271,103.15 452.064,105.302" id="Fill-6" fill="#FFFFFE"></path>
            <path d="M344.82,89.22 C353.538,90.202 361.847,91.293 369.904,92.449 L369.904,36.623 L344.82,36.623 L344.82,89.22" id="Fill-7" fill="#FFFFFE"></path>
            <path d="M357.362,29.431 C361.485,29.431 364.971,28.01 367.814,25.168 C370.656,22.325 372.078,18.842 372.078,14.716 C372.078,10.592 370.656,7.107 367.814,4.264 C364.971,1.421 361.485,0 357.362,0 C353.236,0 349.753,1.421 346.91,4.264 C344.067,7.107 342.646,10.592 342.646,14.716 C342.646,18.842 344.067,22.325 346.91,25.168 C349.753,28.01 353.236,29.431 357.362,29.431" id="Fill-8" fill="#FFFFFE"></path>
            <path d="M275.924,84.651 C284.766,84.854 293.17,85.175 301.175,85.604 L301.175,54.684 L322.914,54.684 L322.914,36.623 L301.175,36.623 L301.175,9.698 L275.924,9.698 L275.924,36.623 L265.388,36.623 L265.388,54.684 L275.924,54.684 L275.924,84.651" id="Fill-9" fill="#FFFFFE"></path>
            <path d="M175.744,88.17 C178.811,87.9 181.881,87.646 184.949,87.401 C184.628,85.571 184.451,83.647 184.451,81.607 C184.451,74.249 186.541,68.228 190.722,63.546 C194.903,58.864 200.253,56.523 206.776,56.523 C213.297,56.523 218.649,58.864 222.83,63.546 C227.01,68.228 229.101,74.249 229.101,81.607 C229.101,82.727 229.035,83.805 228.938,84.863 C237.481,84.573 245.947,84.405 254.273,84.404 C254.321,83.481 254.351,82.551 254.351,81.607 C254.351,68.562 249.836,57.555 240.806,48.579 C231.777,39.606 220.431,35.117 206.776,35.117 C193.118,35.117 181.775,39.606 172.744,48.579 C163.714,57.555 159.199,68.562 159.199,81.607 C159.199,84.521 159.437,87.326 159.888,90.034 C165.127,89.37 170.414,88.746 175.744,88.17" id="Fill-10" fill="#FFFFFE"></path>
            <path d="M25.084,116.98 L25.084,78.095 C25.084,71.072 26.951,65.748 30.686,62.125 C34.421,58.503 38.713,56.689 43.563,56.689 C48.413,56.689 51.924,58.362 54.098,61.707 C56.273,65.051 57.36,70.292 57.36,77.426 L57.36,108.802 C65.466,106.882 73.892,104.985 82.611,103.146 L82.611,78.095 C82.611,71.072 84.45,65.748 88.129,62.125 C91.809,58.503 96.156,56.689 101.173,56.689 C111.317,56.689 116.391,63.604 116.391,77.426 L116.391,96.62 C124.635,95.174 133.062,93.808 141.643,92.541 L141.643,71.908 C141.643,59.98 138.407,50.866 131.944,44.567 C125.476,38.268 116.948,35.117 106.357,35.117 C100.446,35.117 94.568,36.623 88.715,39.632 C82.862,42.643 78.206,46.881 74.752,52.342 C72.41,47.55 68.924,43.478 64.3,40.134 C59.671,36.789 54.517,35.117 48.831,35.117 C39.911,35.117 31.996,39.022 25.084,46.823 L25.084,36.623 L0,36.623 L0,124.086 C7.69,121.803 16.078,119.412 25.084,116.98" id="Fill-11" fill="#FFFFFE"></path>
            <g id="Group-21" transform="translate(0.000000, 106.356000)">
                <mask id="mask-2" fill="white">
                    <use xlink:href="#path-1"></use>
                </mask>
                <g id="Clip-13"></g>
                <path d="M120.239,1.128 C108.896,3.07 97.89,5.164 87.281,7.35 L72.406,10.528 C44.539,16.699 19.92,23.345 0,29.259 L0,94.59 L25.939,94.59 L25.939,44.441 C25.939,37.179 27.868,31.674 31.732,27.927 C35.592,24.182 40.032,22.307 45.047,22.307 C50.062,22.307 53.693,24.035 55.94,27.494 C58.189,30.953 59.312,36.374 59.312,43.75 L59.312,94.59 L85.425,94.59 L85.425,44.441 C85.425,37.179 87.327,31.674 91.131,27.927 C94.936,24.182 99.431,22.307 104.62,22.307 C115.108,22.307 120.356,29.456 120.356,43.75 L120.356,94.59 L146.468,94.59 L146.468,38.043 C146.468,25.709 143.123,16.284 136.438,9.77 C131.989,5.437 126.575,2.579 120.239,1.128" id="Fill-12" fill="#FFFFFE" mask="url(#mask-2)"></path>
                <path d="M191.08,38.735 C191.771,33.433 194.249,29.223 198.516,26.111 C202.779,22.999 207.479,21.442 212.609,21.442 C217.737,21.442 222.091,22.942 225.666,25.938 C229.238,28.938 231.312,33.2 231.89,38.735 L191.08,38.735 Z M244.774,11.586 C235.839,3.863 224.973,1.42108547e-14 212.177,1.42108547e-14 C199.38,1.42108547e-14 188.284,4.322 178.889,12.969 C169.491,21.614 164.795,33.26 164.795,47.9 C164.795,62.542 169.404,74.214 178.629,82.917 C187.851,91.623 199.524,95.973 213.647,95.973 C227.767,95.973 240.074,91.018 250.567,81.102 L236.041,65.365 C230.161,71.477 222.667,74.53 213.56,74.53 C207.911,74.53 202.839,72.918 198.342,69.689 C193.847,66.462 191.193,62.312 190.388,57.238 L258.176,57.238 L258.176,43.403 C258.176,29.916 253.706,19.31 244.774,11.586 L244.774,11.586 Z" id="Fill-14" fill="#FFFFFE" mask="url(#mask-2)"></path>
                <path d="M297.947,38.735 C298.638,33.433 301.117,29.223 305.384,26.111 C309.646,22.999 314.346,21.442 319.476,21.442 C324.604,21.442 328.958,22.942 332.533,25.938 C336.105,28.938 338.179,33.2 338.757,38.735 L297.947,38.735 Z M351.641,11.586 C342.706,3.863 331.84,1.42108547e-14 319.044,1.42108547e-14 C306.247,1.42108547e-14 295.151,4.322 285.756,12.969 C276.359,21.614 271.662,33.26 271.662,47.9 C271.662,62.542 276.271,74.214 285.496,82.917 C294.718,91.623 306.391,95.973 320.514,95.973 C334.634,95.973 346.941,91.018 357.434,81.102 L342.908,65.365 C337.028,71.477 329.534,74.53 320.427,74.53 C314.778,74.53 309.706,72.918 305.209,69.689 C300.714,66.462 298.06,62.312 297.255,57.238 L365.043,57.238 L365.043,43.403 C365.043,29.916 360.573,19.31 351.641,11.586 L351.641,11.586 Z" id="Fill-15" fill="#FFFFFE" mask="url(#mask-2)"></path>
                <path d="M444.068,45.997 C440.61,43.923 437.64,42.395 435.163,41.415 C432.682,40.437 428.505,39.023 422.626,37.179 C416.746,35.336 412.536,33.72 410.002,32.337 C407.465,30.953 406.198,29.05 406.198,26.629 C406.198,22.249 410.202,20.058 418.216,20.058 C426.228,20.058 434.268,22.825 442.339,28.36 L452.022,11.066 C450.936,10.334 449.85,9.65 448.763,8.99 C433.466,6.814 419.049,4.379 404.471,1.975 C399.917,3.329 395.877,5.375 392.363,8.127 C385.447,13.547 381.988,20.551 381.988,29.138 C381.988,37.727 385.504,44.211 392.536,48.591 C395.995,50.782 399.079,52.455 401.788,53.606 C404.495,54.759 408.416,56.144 413.547,57.756 C418.675,59.372 422.596,61.102 425.306,62.944 C428.014,64.789 429.37,66.808 429.37,68.996 C429.37,71.188 428.389,72.946 426.431,74.271 C424.468,75.597 421.818,76.26 418.475,76.26 C407.521,76.26 397.206,72.515 387.521,65.019 L376.109,81.275 C382.102,86.116 388.846,89.777 396.341,92.256 C403.834,94.732 411.04,95.973 417.957,95.973 C428.332,95.973 436.892,93.206 443.635,87.673 C450.381,82.139 453.753,74.789 453.753,65.625 C453.753,56.46 450.524,49.918 444.068,45.997" id="Fill-16" fill="#FFFFFE" mask="url(#mask-2)"></path>
                <path d="M513.238,73.32 C510.7,73.32 508.508,72.313 506.667,70.294 C504.821,68.278 503.899,65.482 503.899,61.907 L503.899,20.231 L526.38,20.231 L526.38,16.038 C504.051,15.189 484.685,13.507 466.893,11.373 L466.893,20.231 L477.787,20.231 L477.787,63.118 C477.787,73.263 480.871,81.275 487.039,87.154 C493.205,93.034 500.757,95.973 509.692,95.973 C518.625,95.973 527.128,92.285 535.199,84.907 L525.515,66.748 C522.17,71.131 518.078,73.32 513.238,73.32" id="Fill-17" fill="#FFFFFE" mask="url(#mask-2)"></path>
                <path d="M570.129,38.735 C570.82,33.433 573.298,29.223 577.565,26.111 C581.828,22.999 586.527,21.442 591.658,21.442 C596.786,21.442 601.14,22.942 604.714,25.938 C608.286,28.938 610.36,33.2 610.938,38.735 L570.129,38.735 Z M559.115,16.644 C557.526,16.644 555.965,16.637 554.404,16.629 C547.367,24.809 543.843,35.231 543.843,47.9 C543.843,62.542 548.453,74.214 557.678,82.917 C566.9,91.623 578.573,95.973 592.696,95.973 C606.816,95.973 619.123,91.018 629.615,81.102 L615.09,65.365 C609.21,71.477 601.715,74.53 592.609,74.53 C586.96,74.53 581.888,72.918 577.391,69.689 C572.895,66.462 570.242,62.312 569.436,57.238 L637.224,57.238 L637.224,43.403 C637.224,31.65 633.827,22.087 627.043,14.71 C586.914,16.64 559.115,16.644 559.115,16.644 L559.115,16.644 Z" id="Fill-18" fill="#FFFFFE" mask="url(#mask-2)"></path>
                <path d="M684.629,10.98 L681.838,11.208 C672.952,11.924 664.271,12.548 655.899,13.088 L655.899,94.59 L681.838,94.59 L681.838,54.298 C681.838,45.306 683.74,38.073 687.544,32.595 C691.349,27.122 697.112,24.382 704.836,24.382 L709.851,24.382 L709.74,8.69 C701.254,9.541 692.859,10.301 684.629,10.98" id="Fill-19" fill="#FFFFFE" mask="url(#mask-2)"></path>
                <path d="M786.63,45.997 C783.172,43.923 780.201,42.395 777.724,41.415 C775.243,40.437 771.066,39.023 765.188,37.179 C759.307,35.336 755.098,33.72 752.564,32.337 C750.027,30.953 748.759,29.05 748.759,26.629 C748.759,22.249 752.764,20.058 760.778,20.058 C768.789,20.058 776.829,22.825 784.901,28.36 L794.584,11.066 C786.725,5.774 778.867,2.39 771.01,0.894 C760.455,2.568 749.75,4.067 739.039,5.404 C737.605,6.227 736.218,7.114 734.925,8.127 C728.008,13.547 724.549,20.551 724.549,29.138 C724.549,37.727 728.065,44.211 735.098,48.591 C738.557,50.782 741.64,52.455 744.35,53.606 C747.056,54.759 750.978,56.144 756.108,57.756 C761.236,59.372 765.158,61.102 767.867,62.944 C770.575,64.789 771.931,66.808 771.931,68.996 C771.931,71.188 770.951,72.946 768.992,74.271 C767.029,75.597 764.38,76.26 761.036,76.26 C750.083,76.26 739.767,72.515 730.083,65.019 L718.671,81.275 C724.664,86.116 731.407,89.777 738.902,92.256 C746.395,94.732 753.602,95.973 760.518,95.973 C770.894,95.973 779.453,93.206 786.197,87.673 C792.942,82.139 796.314,74.789 796.314,65.625 C796.314,56.46 793.085,49.918 786.63,45.997" id="Fill-20" fill="#FFFFFE" mask="url(#mask-2)"></path>
            </g>
        </g>
    </g>
</svg>