<?xml version="1.0" encoding="UTF-8"?>
<svg width="17px" height="16px" viewBox="0 0 17 16" version="1.1" xmlns="http://www.w3.org/2000/svg" xmlns:xlink="http://www.w3.org/1999/xlink">
    <!-- Generator: Sketch 52.2 (67145) - http://www.bohemiancoding.com/sketch -->
    <title></title>
    <desc>Created with Sketch.</desc>
    <g id="Symbols" stroke="none" stroke-width="1" fill="none" fill-rule="evenodd">
        <g id="NAV_rest" transform="translate(-176.000000, -9.000000)" fill="#FFFFFF">
            <g id="topbar">
                <path d="M192.662069,21.6363636 C192.662069,21.8409101 192.624452,22.1079529 192.549216,22.4375 C192.473981,22.7670471 192.394985,23.0265142 192.312226,23.2159091 C192.154231,23.5946989 191.695302,23.99621 190.935423,24.4204545 C190.22821,24.8068201 189.52853,25 188.836364,25 C188.633228,25 188.433857,24.9867426 188.238245,24.9602273 C188.042632,24.933712 187.826333,24.886364 187.589342,24.8181818 C187.35235,24.7499997 187.175549,24.695076 187.058934,24.6534091 C186.942319,24.6117422 186.733544,24.5340915 186.432602,24.4204545 C186.13166,24.3068176 185.947336,24.2386365 185.879624,24.2159091 C185.142316,23.9507563 184.484015,23.6363655 183.904702,23.2727273 C182.949212,22.6742394 181.956118,21.8560658 180.925392,20.8181818 C179.894666,19.7802978 179.082135,18.7803078 178.487774,17.8181818 C178.126644,17.2348456 177.814421,16.5719734 177.551097,15.8295455 C177.528527,15.7613633 177.460816,15.5757591 177.347962,15.2727273 C177.235109,14.9696955 177.157994,14.7594703 177.116614,14.6420455 C177.075235,14.5246206 177.02069,14.3465921 176.952978,14.1079545 C176.885266,13.869317 176.838245,13.6515161 176.811912,13.4545455 C176.78558,13.2575748 176.772414,13.0568192 176.772414,12.8522727 C176.772414,12.1552995 176.964261,11.4507611 177.347962,10.7386364 C177.769281,9.97348102 178.168023,9.51136443 178.544201,9.35227273 C178.732289,9.26893898 178.989967,9.18939432 179.317241,9.11363636 C179.644516,9.03787841 179.909717,9 180.112853,9 C180.218182,9 180.297178,9.01136352 180.349843,9.03409091 C180.485267,9.07954568 180.684638,9.36742159 180.947962,9.89772727 C181.030721,10.0416674 181.143573,10.2462108 181.28652,10.5113636 C181.429468,10.7765165 181.561128,11.0170444 181.681505,11.2329545 C181.801881,11.4488647 181.918495,11.6515142 182.031348,11.8409091 C182.053919,11.8712123 182.119749,11.9659083 182.22884,12.125 C182.337932,12.2840917 182.418809,12.4185601 182.471473,12.5284091 C182.524138,12.6382581 182.55047,12.7462116 182.55047,12.8522727 C182.55047,13.0037886 182.443261,13.1931807 182.22884,13.4204545 C182.014419,13.6477284 181.781192,13.8560597 181.529154,14.0454545 C181.277115,14.2348494 181.043888,14.435605 180.829467,14.6477273 C180.615046,14.8598495 180.507837,15.0340902 180.507837,15.1704545 C180.507837,15.2386367 180.526646,15.3238631 180.564263,15.4261364 C180.601881,15.5284096 180.633856,15.6060603 180.660188,15.6590909 C180.686521,15.7121215 180.739185,15.8030297 180.818182,15.9318182 C180.897179,16.0606067 180.940439,16.1325757 180.947962,16.1477273 C181.519752,17.1856113 182.174291,18.0757539 182.911599,18.8181818 C183.648907,19.5606098 184.53291,20.2196941 185.563636,20.7954545 C185.578683,20.8030303 185.650156,20.8465905 185.778056,20.9261364 C185.905957,21.0056822 185.996238,21.058712 186.048903,21.0852273 C186.101568,21.1117426 186.178683,21.1439392 186.280251,21.1818182 C186.381819,21.2196972 186.466457,21.2386364 186.534169,21.2386364 C186.669593,21.2386364 186.842632,21.1306829 187.053292,20.9147727 C187.263951,20.6988626 187.463322,20.4640164 187.651411,20.2102273 C187.839499,19.9564381 188.046394,19.721592 188.2721,19.5056818 C188.497807,19.2897716 188.685893,19.1818182 188.836364,19.1818182 C188.941693,19.1818182 189.048902,19.2083331 189.157994,19.2613636 C189.267085,19.3143942 189.400626,19.3958328 189.558621,19.5056818 C189.716615,19.6155309 189.810658,19.6818181 189.840752,19.7045455 C190.028841,19.8181824 190.230093,19.9356055 190.444514,20.0568182 C190.658935,20.1780309 190.897804,20.3106053 191.161129,20.4545455 C191.424453,20.5984856 191.627585,20.7121208 191.770533,20.7954545 C192.297181,21.0606074 192.583072,21.261363 192.628213,21.3977273 C192.650784,21.4507578 192.662069,21.5303025 192.662069,21.6363636 Z" id=""></path>
            </g>
        </g>
    </g>
</svg>